<svg
  width="197"
  height="75"
  viewBox="0 0 197 75"
  fill="none"
  xmlns="http://www.w3.org/2000/svg"
>
  <path
    d="M20.5078 16.0938C20.7943 15.651 21.1654 15.1432 21.6211 14.5703C22.0898 13.9974 22.6172 13.4245 23.2031 12.8516C23.7891 12.2656 24.4271 11.7122 25.1172 11.1914C25.8203 10.6706 26.5495 10.2474 27.3047 9.92188C26.5234 9.72656 25.6901 9.57682 24.8047 9.47266C23.9193 9.36849 22.9688 9.31641 21.9531 9.31641C20.5729 9.31641 19.2448 9.41406 17.9688 9.60938C16.6927 9.80469 15.5078 10.1042 14.4141 10.5078C13.3203 10.9115 12.3242 11.4323 11.4258 12.0703C10.5404 12.6953 9.77865 13.4505 9.14062 14.3359C8.5026 15.2214 8.00781 16.237 7.65625 17.3828C7.31771 18.5286 7.14844 19.8112 7.14844 21.2305C7.14844 21.6732 7.16797 22.1354 7.20703 22.6172C7.25911 23.099 7.36328 23.5742 7.51953 24.043C7.67578 24.4987 7.89714 24.9349 8.18359 25.3516C8.47005 25.7682 8.85417 26.1263 9.33594 26.4258L9.08203 26.8359C7.91016 26.276 7.04427 25.5273 6.48438 24.5898C5.92448 23.6393 5.64453 22.4023 5.64453 20.8789C5.64453 19.0299 6.04818 17.3503 6.85547 15.8398C7.66276 14.3294 8.78255 13.0404 10.2148 11.9727C11.6471 10.8919 13.3529 10.0586 15.332 9.47266C17.3242 8.8737 19.4987 8.57422 21.8555 8.57422C24.3034 8.57422 26.4779 8.89323 28.3789 9.53125C30.293 10.1562 31.901 11.0547 33.2031 12.2266C34.5182 13.3854 35.5143 14.7786 36.1914 16.4062C36.8815 18.0339 37.2266 19.8438 37.2266 21.8359C37.2266 23.0729 37.0964 24.2904 36.8359 25.4883C36.5755 26.6862 36.2109 27.8385 35.7422 28.9453C35.2865 30.0521 34.7331 31.1068 34.082 32.1094C33.444 33.099 32.7409 34.0104 31.9727 34.8438C31.2044 35.6771 30.3516 36.4583 29.4141 37.1875C28.4766 37.9036 27.4414 38.5286 26.3086 39.0625C25.1888 39.5964 23.9779 40.013 22.6758 40.3125C21.3737 40.625 19.974 40.7812 18.4766 40.7812C17.5651 40.7812 16.6992 40.7292 15.8789 40.625C15.0586 40.5208 14.2904 40.3841 13.5742 40.2148C12.8711 40.0586 12.2266 39.8893 11.6406 39.707C11.0677 39.5117 10.5664 39.3294 10.1367 39.1602C9.1862 39.707 8.19661 40.1107 7.16797 40.3711C6.15234 40.6315 5.07161 40.7617 3.92578 40.7617C3.11849 40.7617 2.46094 40.7031 1.95312 40.5859C1.44531 40.4818 1.04818 40.332 0.761719 40.1367C0.47526 39.9544 0.273438 39.7461 0.15625 39.5117C0.0520833 39.2773 0 39.043 0 38.8086C0 38.3398 0.14974 37.9688 0.449219 37.6953C0.761719 37.4219 1.15234 37.2135 1.62109 37.0703C2.08984 36.9141 2.59766 36.8164 3.14453 36.7773C3.70443 36.7253 4.23177 36.6992 4.72656 36.6992C5.79427 36.6992 6.78385 36.7708 7.69531 36.9141C8.61979 37.0443 9.50521 37.2396 10.3516 37.5C10.7552 37.0443 11.1589 36.5104 11.5625 35.8984C11.9792 35.2734 12.4023 34.5508 12.832 33.7305C13.2617 32.9102 13.7044 31.9857 14.1602 30.957C14.6289 29.9284 15.1172 28.776 15.625 27.5C16.237 25.9635 16.7643 24.6484 17.207 23.5547C17.6497 22.4479 18.0273 21.5104 18.3398 20.7422C18.6523 19.9609 18.9128 19.3164 19.1211 18.8086C19.3424 18.3008 19.5312 17.8841 19.6875 17.5586C19.8438 17.2201 19.9805 16.9466 20.0977 16.7383C20.2279 16.5169 20.3646 16.3021 20.5078 16.0938ZM34.7266 20.5469C34.7266 17.7604 34.1732 15.5143 33.0664 13.8086C31.9727 12.0898 30.293 10.8659 28.0273 10.1367C27.6758 10.319 27.3307 10.5273 26.9922 10.7617C26.6536 10.9961 26.3346 11.25 26.0352 11.5234C25.7357 11.7969 25.4557 12.0833 25.1953 12.3828C24.9479 12.6823 24.7266 12.9753 24.5312 13.2617C24.375 13.4831 24.2253 13.7305 24.082 14.0039C23.9388 14.2773 23.776 14.6094 23.5938 15C23.4245 15.3906 23.2292 15.8594 23.0078 16.4062C22.7995 16.9531 22.5521 17.6107 22.2656 18.3789C21.9792 19.1341 21.6471 20.0195 21.2695 21.0352C20.8919 22.0508 20.4622 23.2227 19.9805 24.5508C18.7565 27.8711 17.474 30.6315 16.1328 32.832C14.7917 35.0326 13.3529 36.7578 11.8164 38.0078C12.3112 38.1901 12.8516 38.3919 13.4375 38.6133C14.0234 38.8216 14.6549 39.0169 15.332 39.1992C16.0091 39.3815 16.7188 39.5312 17.4609 39.6484C18.2161 39.7656 19.0039 39.8242 19.8242 39.8242C21.1133 39.8242 22.2917 39.6745 23.3594 39.375C24.4271 39.0625 25.3971 38.6393 26.2695 38.1055C27.1549 37.5716 27.9492 36.9531 28.6523 36.25C29.3685 35.5339 30.013 34.7721 30.5859 33.9648C31.2109 33.0664 31.7773 32.0898 32.2852 31.0352C32.793 29.9674 33.2292 28.8542 33.5938 27.6953C33.9583 26.5365 34.2383 25.3581 34.4336 24.1602C34.6289 22.9492 34.7266 21.7448 34.7266 20.5469ZM4.0625 40.0586C5.03906 40.0586 5.92448 39.974 6.71875 39.8047C7.51302 39.6224 8.27474 39.2643 9.00391 38.7305C8.74349 38.6523 8.37891 38.5482 7.91016 38.418C7.44141 38.2747 6.92708 38.1445 6.36719 38.0273C5.82031 37.8971 5.25391 37.7865 4.66797 37.6953C4.09505 37.6042 3.55469 37.5586 3.04688 37.5586C2.38281 37.5586 1.83594 37.6562 1.40625 37.8516C0.989583 38.0469 0.78125 38.3724 0.78125 38.8281C0.78125 38.9974 0.820312 39.1602 0.898438 39.3164C0.989583 39.4596 1.15234 39.5898 1.38672 39.707C1.63411 39.8112 1.96615 39.8958 2.38281 39.9609C2.8125 40.026 3.3724 40.0586 4.0625 40.0586ZM46.875 16.8555H49.7656L44.7852 30.5273C44.6029 31.0352 44.4206 31.556 44.2383 32.0898C44.056 32.6107 43.8932 33.1315 43.75 33.6523C43.6198 34.1602 43.5091 34.6549 43.418 35.1367C43.3398 35.6055 43.3008 36.0417 43.3008 36.4453C43.3008 37.3438 43.5352 38.0599 44.0039 38.5938C44.4857 39.1276 45.2279 39.3945 46.2305 39.3945C47.1029 39.3945 47.9427 39.2057 48.75 38.8281C49.5703 38.4505 50.3776 37.8841 51.1719 37.1289C51.9792 36.3607 52.7865 35.4036 53.5938 34.2578C54.401 33.099 55.2409 31.7513 56.1133 30.2148L57.1289 28.418L57.6562 28.7891L56.6406 30.5859C55.6901 32.2656 54.7786 33.724 53.9062 34.9609C53.0469 36.1849 52.181 37.2005 51.3086 38.0078C50.4492 38.8021 49.5703 39.3945 48.6719 39.7852C47.7734 40.1758 46.8164 40.3711 45.8008 40.3711C45.0065 40.3711 44.3034 40.2474 43.6914 40C43.0924 39.7656 42.5911 39.4271 42.1875 38.9844C41.7708 38.5417 41.4583 38.0078 41.25 37.3828C41.0417 36.7578 40.9375 36.0612 40.9375 35.293C40.9375 34.6159 41.0221 33.8737 41.1914 33.0664C41.3477 32.2591 41.582 31.4128 41.8945 30.5273L46.875 16.8555ZM48.4375 11.7383C48.4375 11.2826 48.5938 10.8919 48.9062 10.5664C49.2318 10.2409 49.6224 10.0781 50.0781 10.0781C50.5339 10.0781 50.918 10.2409 51.2305 10.5664C51.556 10.8789 51.7188 11.263 51.7188 11.7188C51.7188 11.9401 51.6732 12.1549 51.582 12.3633C51.5039 12.5586 51.3867 12.7279 51.2305 12.8711C51.0872 13.0143 50.9115 13.1315 50.7031 13.2227C50.5078 13.3008 50.293 13.3398 50.0586 13.3398C49.6029 13.3398 49.2188 13.1901 48.9062 12.8906C48.5938 12.5781 48.4375 12.194 48.4375 11.7383ZM63.8281 40.3711C61.4714 40.3711 59.6549 39.7591 58.3789 38.5352C57.1029 37.2982 56.4648 35.4622 56.4648 33.0273C56.4648 32.3633 56.5169 31.6602 56.6211 30.918C56.7122 30.1758 56.862 29.4141 57.0703 28.6328C57.5391 26.888 58.1966 25.2734 59.043 23.7891C59.9023 22.3047 60.8854 21.0221 61.9922 19.9414C63.099 18.8607 64.2904 18.0143 65.5664 17.4023C66.8424 16.7904 68.125 16.4844 69.4141 16.4844C70.7161 16.4844 71.7383 16.7904 72.4805 17.4023C73.2357 18.0143 73.6133 18.8737 73.6133 19.9805C73.6133 20.6055 73.4896 21.2174 73.2422 21.8164C72.9948 22.4154 72.6367 22.9818 72.168 23.5156C71.6992 24.0495 71.1328 24.5508 70.4688 25.0195C69.8177 25.4753 69.082 25.8724 68.2617 26.2109C67.2461 26.6406 66.1263 26.9661 64.9023 27.1875C63.6784 27.3958 62.2852 27.5 60.7227 27.5C60.3451 28.5547 60.0456 29.6549 59.8242 30.8008C59.6159 31.9336 59.5117 33.0924 59.5117 34.2773C59.5117 36.0872 59.8893 37.3958 60.6445 38.2031C61.4128 38.9974 62.6172 39.3945 64.2578 39.3945C65.625 39.3945 66.9271 39.1341 68.1641 38.6133C69.401 38.0794 70.5469 37.3828 71.6016 36.5234C72.6562 35.6641 73.6198 34.6875 74.4922 33.5938C75.3646 32.487 76.1263 31.3607 76.7773 30.2148L77.793 28.418L78.3203 28.7891L77.3047 30.5859C76.4974 32.0052 75.612 33.3138 74.6484 34.5117C73.6979 35.7096 72.6562 36.7448 71.5234 37.6172C70.4036 38.4766 69.1992 39.1536 67.9102 39.6484C66.6341 40.1302 65.2734 40.3711 63.8281 40.3711ZM69.9609 17.2656C69.1406 17.2656 68.3008 17.5065 67.4414 17.9883C66.5951 18.4701 65.7747 19.1406 64.9805 20C64.1862 20.8464 63.444 21.849 62.7539 23.0078C62.0638 24.1667 61.4648 25.4297 60.957 26.7969C62.3893 26.7708 63.6133 26.6471 64.6289 26.4258C65.6445 26.1914 66.5299 25.8984 67.2852 25.5469C67.8841 25.2734 68.4635 24.9219 69.0234 24.4922C69.5964 24.0495 70.0977 23.5482 70.5273 22.9883C70.9701 22.4284 71.3216 21.8229 71.582 21.1719C71.8555 20.5208 71.9922 19.8438 71.9922 19.1406C71.9922 18.7891 71.9401 18.4961 71.8359 18.2617C71.7318 18.0273 71.5885 17.8385 71.4062 17.6953C71.224 17.5391 71.0091 17.4284 70.7617 17.3633C70.5143 17.2982 70.2474 17.2656 69.9609 17.2656ZM76.2695 16.8555H81.9727L83.8281 11.7383H86.7188L84.8633 16.8555H90.7227V17.6367H84.5703L79.8828 30.5273C79.7005 31.0352 79.5182 31.556 79.3359 32.0898C79.1667 32.6237 79.0104 33.151 78.8672 33.6719C78.737 34.1797 78.6263 34.6745 78.5352 35.1562C78.457 35.625 78.418 36.0547 78.418 36.4453C78.418 37.3438 78.6589 38.0599 79.1406 38.5938C79.6354 39.1276 80.3776 39.3945 81.3672 39.3945C82.3307 39.3945 83.2682 39.2122 84.1797 38.8477C85.0911 38.4831 85.9896 37.9232 86.875 37.168C87.7604 36.4128 88.6393 35.4622 89.5117 34.3164C90.3841 33.1576 91.263 31.7904 92.1484 30.2148L93.1641 28.418L93.6914 28.7891L92.6758 30.5859C91.6471 32.4089 90.651 33.9453 89.6875 35.1953C88.724 36.4323 87.7669 37.4349 86.8164 38.2031C85.8789 38.9714 84.9219 39.5247 83.9453 39.8633C82.9818 40.2018 81.9792 40.3711 80.9375 40.3711C80.1432 40.3711 79.4401 40.2474 78.8281 40C78.2161 39.7656 77.7083 39.4271 77.3047 38.9844C76.888 38.5417 76.5755 38.0078 76.3672 37.3828C76.1458 36.7578 76.0352 36.0612 76.0352 35.293C76.0352 34.6159 76.1133 33.8737 76.2695 33.0664C76.4258 32.2591 76.6667 31.4128 76.9922 30.5273L81.6797 17.6367H76.2695V16.8555ZM93.0078 28.6523C93.4635 26.9076 94.1276 25.293 95 23.8086C95.8854 22.3242 96.8945 21.0417 98.0273 19.9609C99.1732 18.8672 100.41 18.0143 101.738 17.4023C103.079 16.7904 104.427 16.4844 105.781 16.4844C106.875 16.4844 107.793 16.6732 108.535 17.0508C109.29 17.4154 109.896 17.9102 110.352 18.5352C110.807 19.1602 111.133 19.8828 111.328 20.7031C111.523 21.5234 111.621 22.3828 111.621 23.2812C111.621 24.2578 111.523 25.2344 111.328 26.2109C111.146 27.1875 110.905 28.1185 110.605 29.0039C110.046 30.6445 109.323 32.1615 108.438 33.5547C107.552 34.9349 106.562 36.1328 105.469 37.1484C104.388 38.1641 103.236 38.9583 102.012 39.5312C100.788 40.0911 99.5638 40.3711 98.3398 40.3711C97.4154 40.3711 96.582 40.2083 95.8398 39.8828C95.1107 39.5443 94.4922 39.0625 93.9844 38.4375C93.4766 37.8125 93.0859 37.0508 92.8125 36.1523C92.5391 35.2409 92.4023 34.2188 92.4023 33.0859C92.4023 32.3698 92.4544 31.6406 92.5586 30.8984C92.6628 30.1432 92.8125 29.3945 93.0078 28.6523ZM98.6328 39.3945C99.5703 39.3945 100.521 39.1276 101.484 38.5938C102.461 38.0599 103.398 37.3177 104.297 36.3672C105.208 35.4036 106.055 34.2578 106.836 32.9297C107.617 31.6016 108.288 30.1432 108.848 28.5547C109.004 28.125 109.154 27.6432 109.297 27.1094C109.453 26.5755 109.596 26.0221 109.727 25.4492C109.857 24.8633 109.961 24.2708 110.039 23.6719C110.117 23.0599 110.156 22.4674 110.156 21.8945C110.156 21.2695 110.098 20.6771 109.98 20.1172C109.863 19.5443 109.661 19.0495 109.375 18.6328C109.102 18.2161 108.724 17.8841 108.242 17.6367C107.773 17.3893 107.188 17.2656 106.484 17.2656C105.469 17.2656 104.46 17.5391 103.457 18.0859C102.467 18.6198 101.523 19.3815 100.625 20.3711C99.7396 21.3477 98.9323 22.5195 98.2031 23.8867C97.474 25.2539 96.8685 26.7643 96.3867 28.418C96.0612 29.5247 95.8073 30.638 95.625 31.7578C95.4557 32.8646 95.3711 33.8737 95.3711 34.7852C95.3711 37.8581 96.4583 39.3945 98.6328 39.3945Z"
    fill="black"
  />
  <path
    d="M3.22266 68.457C1.07422 68.457 0 67.1914 0 64.6602C0 63.5195 0.195313 62.332 0.585938 61.0977C0.976562 59.8555 1.54688 58.6055 2.29688 57.3477C3.0625 56.0742 3.92969 54.9297 4.89844 53.9141C5.86719 52.8984 6.90234 52.0391 8.00391 51.3359C9.10547 50.625 10.2578 50.082 11.4609 49.707C12.6641 49.332 13.8828 49.1445 15.1172 49.1445C15.9688 49.1445 16.7227 49.2305 17.3789 49.4023C18.0352 49.5664 18.5859 49.8125 19.0312 50.1406C19.4844 50.4609 19.8281 50.8594 20.0625 51.3359C20.2969 51.8047 20.4141 52.3438 20.4141 52.9531C20.4141 53.7891 20.2188 54.5742 19.8281 55.3086C19.4375 56.0352 18.9023 56.6719 18.2227 57.2188C17.543 57.7578 16.7422 58.1875 15.8203 58.5078C14.9062 58.8281 13.9258 58.9922 12.8789 59V58.8711C13.8008 58.7148 14.6328 58.457 15.375 58.0977C16.1172 57.7305 16.7461 57.2812 17.2617 56.75C17.7852 56.2109 18.1836 55.5977 18.457 54.9102C18.7383 54.2227 18.8789 53.4805 18.8789 52.6836C18.8789 51.8789 18.7227 51.2422 18.4102 50.7734C18.1055 50.2969 17.6133 49.9648 16.9336 49.7773C16.5117 49.957 16.0938 50.2148 15.6797 50.5508C15.2734 50.8867 14.9336 51.2656 14.6602 51.6875C14.5742 51.8125 14.4922 51.9453 14.4141 52.0859C14.3359 52.2188 14.2461 52.3906 14.1445 52.6016C14.0508 52.8125 13.9375 53.0781 13.8047 53.3984C13.6797 53.7109 13.5273 54.1094 13.3477 54.5938C13.168 55.0703 12.9531 55.6484 12.7031 56.3281C12.4531 57 12.1602 57.8008 11.8242 58.7305C11.2227 60.3867 10.5977 61.8281 9.94922 63.0547C9.30078 64.2734 8.62109 65.2852 7.91016 66.0898C7.19922 66.8867 6.45312 67.4805 5.67188 67.8711C4.89844 68.2617 4.08203 68.457 3.22266 68.457ZM12.1523 53.5859C12.418 53.1328 12.7188 52.707 13.0547 52.3086C13.3906 51.9023 13.7422 51.5312 14.1094 51.1953C14.4844 50.8594 14.8711 50.5664 15.2695 50.3164C15.6758 50.0586 16.082 49.8477 16.4883 49.6836C16.3008 49.6523 16.1016 49.6289 15.8906 49.6133C15.6875 49.5977 15.4688 49.5898 15.2344 49.5898C14.0625 49.5898 12.8945 49.7734 11.7305 50.1406C10.5664 50.5078 9.44922 51.0352 8.37891 51.7227C7.30859 52.4102 6.30078 53.2422 5.35547 54.2188C4.41797 55.1953 3.58203 56.293 2.84766 57.5117C2.12891 58.6992 1.58203 59.9023 1.20703 61.1211C0.839844 62.332 0.65625 63.5156 0.65625 64.6719C0.65625 65.8203 0.855469 66.6562 1.25391 67.1797C1.65234 67.7031 2.27734 67.9648 3.12891 67.9648C3.53516 67.9648 3.91406 67.9141 4.26562 67.8125C4.61719 67.7109 4.95312 67.543 5.27344 67.3086C5.60156 67.0742 5.91797 66.7695 6.22266 66.3945C6.52734 66.0195 6.83594 65.5547 7.14844 65C7.46875 64.4453 7.79297 63.7969 8.12109 63.0547C8.45703 62.3125 8.81641 61.4609 9.19922 60.5C9.53516 59.6406 9.82812 58.8945 10.0781 58.2617C10.3359 57.6211 10.5586 57.0703 10.7461 56.6094C10.9336 56.1484 11.0938 55.7617 11.2266 55.4492C11.3594 55.1367 11.4805 54.8711 11.5898 54.6523C11.6992 54.4258 11.7969 54.2305 11.8828 54.0664C11.9688 53.9023 12.0586 53.7422 12.1523 53.5859ZM29.6133 54.9453C29.6133 54.8203 29.5312 54.6953 29.3672 54.5703C29.2109 54.4375 28.9805 54.3711 28.6758 54.3711C28.3633 54.3711 28.0234 54.4688 27.6562 54.6641C27.2891 54.8516 26.8711 55.1875 26.4023 55.6719C25.9336 56.1562 25.4062 56.8164 24.8203 57.6523C24.2422 58.4883 23.5859 59.5547 22.8516 60.8516L22.2656 61.8828L20.0508 68H18.3047L23.3672 54.1133H25.1016L23.0508 59.7383C23.6914 58.6367 24.2773 57.7148 24.8086 56.9727C25.3398 56.2227 25.832 55.6211 26.2852 55.168C26.7383 54.707 27.1641 54.3789 27.5625 54.1836C27.9609 53.9883 28.3516 53.8906 28.7344 53.8906C29.25 53.8906 29.6523 54.043 29.9414 54.3477C30.2383 54.6523 30.3867 55.0508 30.3867 55.543C30.3867 55.7461 30.3594 55.9414 30.3047 56.1289C30.2578 56.3086 30.1836 56.4648 30.082 56.5977C29.9883 56.7305 29.8711 56.8359 29.7305 56.9141C29.5898 56.9922 29.4336 57.0312 29.2617 57.0312C29.1367 57.0312 29.0117 57.0117 28.8867 56.9727C28.7695 56.9336 28.6641 56.875 28.5703 56.7969C28.4766 56.7109 28.3984 56.6094 28.3359 56.4922C28.2812 56.375 28.2539 56.2383 28.2539 56.082C28.2539 55.957 28.2734 55.832 28.3125 55.707C28.3594 55.5742 28.4219 55.4609 28.5 55.3672C28.5781 55.2656 28.6719 55.1836 28.7812 55.1211C28.8906 55.0586 29.0117 55.0273 29.1445 55.0273C29.2305 55.0273 29.3125 55.0352 29.3906 55.0508C29.4062 55.0664 29.4258 55.082 29.4492 55.0977C29.4805 55.1055 29.5039 55.1094 29.5195 55.1094C29.582 55.1094 29.6133 55.0547 29.6133 54.9453ZM31.6875 61.1914C31.9609 60.1445 32.3594 59.1758 32.8828 58.2852C33.4141 57.3945 34.0195 56.625 34.6992 55.9766C35.3867 55.3203 36.1289 54.8086 36.9258 54.4414C37.7305 54.0742 38.5391 53.8906 39.3516 53.8906C40.0078 53.8906 40.5586 54.0039 41.0039 54.2305C41.457 54.4492 41.8203 54.7461 42.0938 55.1211C42.3672 55.4961 42.5625 55.9297 42.6797 56.4219C42.7969 56.9141 42.8555 57.4297 42.8555 57.9688C42.8555 58.5547 42.7969 59.1406 42.6797 59.7266C42.5703 60.3125 42.4258 60.8711 42.2461 61.4023C41.9102 62.3867 41.4766 63.2969 40.9453 64.1328C40.4141 64.9609 39.8203 65.6797 39.1641 66.2891C38.5156 66.8984 37.8242 67.375 37.0898 67.7188C36.3555 68.0547 35.6211 68.2227 34.8867 68.2227C34.332 68.2227 33.832 68.125 33.3867 67.9297C32.9492 67.7266 32.5781 67.4375 32.2734 67.0625C31.9688 66.6875 31.7344 66.2305 31.5703 65.6914C31.4062 65.1445 31.3242 64.5312 31.3242 63.8516C31.3242 63.4219 31.3555 62.9844 31.418 62.5391C31.4805 62.0859 31.5703 61.6367 31.6875 61.1914ZM35.0625 67.6367C35.625 67.6367 36.1953 67.4766 36.7734 67.1562C37.3594 66.8359 37.9219 66.3906 38.4609 65.8203C39.0078 65.2422 39.5156 64.5547 39.9844 63.7578C40.4531 62.9609 40.8555 62.0859 41.1914 61.1328C41.2852 60.875 41.375 60.5859 41.4609 60.2656C41.5547 59.9453 41.6406 59.6133 41.7188 59.2695C41.7969 58.918 41.8594 58.5625 41.9062 58.2031C41.9531 57.8359 41.9766 57.4805 41.9766 57.1367C41.9766 56.7617 41.9414 56.4062 41.8711 56.0703C41.8008 55.7266 41.6797 55.4297 41.5078 55.1797C41.3438 54.9297 41.1172 54.7305 40.8281 54.582C40.5469 54.4336 40.1953 54.3594 39.7734 54.3594C39.1641 54.3594 38.5586 54.5234 37.957 54.8516C37.3633 55.1719 36.7969 55.6289 36.2578 56.2227C35.7266 56.8086 35.2422 57.5117 34.8047 58.332C34.3672 59.1523 34.0039 60.0586 33.7148 61.0508C33.5195 61.7148 33.3672 62.3828 33.2578 63.0547C33.1562 63.7188 33.1055 64.3242 33.1055 64.8711C33.1055 66.7148 33.7578 67.6367 35.0625 67.6367ZM45.2227 54.1133H48.6445L48.8203 53.6445C49.1484 52.7305 49.5234 51.9219 49.9453 51.2188C50.375 50.5078 50.8633 49.9102 51.4102 49.4258C51.957 48.9336 52.5703 48.5625 53.25 48.3125C53.9297 48.0625 54.6914 47.9375 55.5352 47.9375C56.1055 47.9375 56.625 47.9961 57.0938 48.1133C57.5625 48.2305 57.9609 48.4023 58.2891 48.6289C58.625 48.8555 58.8828 49.1328 59.0625 49.4609C59.2422 49.7891 59.332 50.168 59.332 50.5977C59.332 51.0352 59.2383 51.375 59.0508 51.6172C58.8633 51.8594 58.6055 51.9805 58.2773 51.9805C58.0117 51.9805 57.8008 51.9062 57.6445 51.7578C57.4961 51.6094 57.4219 51.3984 57.4219 51.125C57.4219 50.875 57.4883 50.6758 57.6211 50.5273C57.7539 50.3711 57.9297 50.293 58.1484 50.293C58.2266 50.293 58.3008 50.3086 58.3711 50.3398C58.3867 50.3477 58.4062 50.3555 58.4297 50.3633C58.4609 50.3633 58.4844 50.3633 58.5 50.3633C58.5391 50.3633 58.5664 50.3516 58.582 50.3281C58.5977 50.2969 58.6055 50.2383 58.6055 50.1523C58.6055 49.9023 58.5273 49.6758 58.3711 49.4727C58.2227 49.2695 58.0156 49.0938 57.75 48.9453C57.4844 48.7969 57.168 48.6836 56.8008 48.6055C56.4336 48.5273 56.0391 48.4883 55.6172 48.4883C55.0234 48.4883 54.4883 48.5781 54.0117 48.7578C53.543 48.9297 53.1094 49.2148 52.7109 49.6133C52.3203 50.0117 51.9531 50.5352 51.6094 51.1836C51.2656 51.8242 50.9258 52.6133 50.5898 53.5508L50.3789 54.1133H53.8945V54.582H50.2031L43.0781 74.1758H41.3438L48.4688 54.582H45.2227V54.1133ZM56.4258 54.1133H58.1602L55.1719 62.3164C55.0625 62.6211 54.9531 62.9336 54.8438 63.2539C54.7344 63.5664 54.6367 63.8789 54.5508 64.1914C54.4727 64.4961 54.4062 64.793 54.3516 65.082C54.3047 65.3633 54.2812 65.625 54.2812 65.8672C54.2812 66.4062 54.4219 66.8359 54.7031 67.1562C54.9922 67.4766 55.4375 67.6367 56.0391 67.6367C56.5625 67.6367 57.0664 67.5234 57.5508 67.2969C58.043 67.0703 58.5273 66.7305 59.0039 66.2773C59.4883 65.8164 59.9727 65.2422 60.457 64.5547C60.9414 63.8594 61.4453 63.0508 61.9688 62.1289L62.5781 61.0508L62.8828 61.2734L62.2852 62.3516C61.7148 63.3594 61.168 64.2344 60.6445 64.9766C60.1289 65.7109 59.6094 66.3203 59.0859 66.8047C58.5703 67.2812 58.043 67.6367 57.5039 67.8711C56.9648 68.1055 56.3906 68.2227 55.7812 68.2227C55.3047 68.2227 54.8828 68.1484 54.5156 68C54.1562 67.8594 53.8516 67.6562 53.6016 67.3906C53.3594 67.125 53.1758 66.8047 53.0508 66.4297C52.9258 66.0547 52.8633 65.6367 52.8633 65.1758C52.8633 64.7695 52.9102 64.3242 53.0039 63.8398C53.1055 63.3555 53.25 62.8477 53.4375 62.3164L56.4258 54.1133ZM67.3477 47.9375H69.0938L63.8555 62.3164C63.7461 62.6211 63.6367 62.9336 63.5273 63.2539C63.418 63.5664 63.3203 63.8789 63.2344 64.1914C63.1562 64.4961 63.0898 64.793 63.0352 65.082C62.9883 65.3633 62.9648 65.625 62.9648 65.8672C62.9648 66.4062 63.1055 66.8359 63.3867 67.1562C63.6758 67.4766 64.1211 67.6367 64.7227 67.6367C65.2461 67.6367 65.75 67.5234 66.2344 67.2969C66.7266 67.0703 67.2109 66.7305 67.6875 66.2773C68.1719 65.8164 68.6562 65.2422 69.1406 64.5547C69.625 63.8594 70.1289 63.0508 70.6523 62.1289L71.2617 61.0508L71.5781 61.2734L70.9688 62.3516C70.3984 63.3594 69.8516 64.2344 69.3281 64.9766C68.8125 65.7109 68.293 66.3203 67.7695 66.8047C67.2539 67.2812 66.7266 67.6367 66.1875 67.8711C65.6484 68.1055 65.0742 68.2227 64.4648 68.2227C63.9883 68.2227 63.5664 68.1484 63.1992 68C62.8398 67.8594 62.5391 67.6562 62.2969 67.3906C62.0469 67.125 61.8594 66.8047 61.7344 66.4297C61.6094 66.0547 61.5469 65.6367 61.5469 65.1758C61.5469 64.7695 61.5938 64.3281 61.6875 63.8516C61.7812 63.3672 61.9258 62.8555 62.1211 62.3164L67.3477 47.9375ZM71.2031 61.1562C71.4844 60.3125 71.8203 59.5469 72.2109 58.8594C72.6016 58.1641 73.0234 57.5469 73.4766 57.0078C73.9375 56.4688 74.418 56.0039 74.918 55.6133C75.4258 55.2227 75.9297 54.9023 76.4297 54.6523C76.9375 54.3945 77.4336 54.2031 77.918 54.0781C78.4102 53.9531 78.8711 53.8906 79.3008 53.8906C79.7461 53.8906 80.1172 53.9609 80.4141 54.1016C80.7109 54.2344 80.9492 54.4258 81.1289 54.6758C81.3164 54.918 81.4492 55.2148 81.5273 55.5664C81.6055 55.9102 81.6445 56.293 81.6445 56.7148L82.5938 54.1133H84.3281L81.3398 62.3164C81.2305 62.6211 81.1211 62.9336 81.0117 63.2539C80.9023 63.5664 80.8047 63.8789 80.7188 64.1914C80.6406 64.4961 80.5742 64.793 80.5195 65.082C80.4727 65.3633 80.4492 65.625 80.4492 65.8672C80.4492 66.4062 80.5898 66.8359 80.8711 67.1562C81.1602 67.4766 81.6055 67.6367 82.207 67.6367C82.7305 67.6367 83.2383 67.5273 83.7305 67.3086C84.2227 67.082 84.707 66.7422 85.1836 66.2891C85.668 65.8281 86.1523 65.2539 86.6367 64.5664C87.1211 63.8711 87.6211 63.0586 88.1367 62.1289L88.7344 61.0508L89.0508 61.2734L88.4414 62.3516C87.8711 63.3672 87.3242 64.2461 86.8008 64.9883C86.2852 65.7227 85.7695 66.332 85.2539 66.8164C84.7383 67.293 84.2109 67.6484 83.6719 67.8828C83.1328 68.1094 82.5586 68.2227 81.9492 68.2227C81.4727 68.2227 81.0508 68.1484 80.6836 68C80.3242 67.8594 80.0195 67.6562 79.7695 67.3906C79.5273 67.125 79.3438 66.8047 79.2188 66.4297C79.0938 66.0547 79.0312 65.6367 79.0312 65.1758C79.0312 64.8711 79.0586 64.543 79.1133 64.1914C79.168 63.832 79.25 63.4609 79.3594 63.0781C78.3359 64.7969 77.3242 66.0859 76.3242 66.9453C75.3242 67.7969 74.3086 68.2227 73.2773 68.2227C72.793 68.2227 72.3789 68.1367 72.0352 67.9648C71.6992 67.7852 71.4219 67.5391 71.2031 67.2266C70.9844 66.9062 70.8242 66.5352 70.7227 66.1133C70.6211 65.6836 70.5703 65.2148 70.5703 64.707C70.5703 64.1602 70.625 63.5859 70.7344 62.9844C70.8438 62.375 71 61.7656 71.2031 61.1562ZM73.6992 67.6367C74.1211 67.6367 74.5508 67.5273 74.9883 67.3086C75.4258 67.082 75.8594 66.7773 76.2891 66.3945C76.7266 66.0039 77.1484 65.5508 77.5547 65.0352C77.9609 64.5117 78.3438 63.957 78.7031 63.3711C79.0703 62.7773 79.4062 62.168 79.7109 61.543C80.0156 60.918 80.2773 60.3047 80.4961 59.7031C80.7227 59.0938 80.8945 58.5156 81.0117 57.9688C81.1367 57.4141 81.1992 56.918 81.1992 56.4805C81.1992 56.082 81.1484 55.75 81.0469 55.4844C80.9531 55.2109 80.8242 54.9922 80.6602 54.8281C80.5039 54.6562 80.3203 54.5352 80.1094 54.4648C79.9062 54.3945 79.6953 54.3594 79.4766 54.3594C79.0391 54.3594 78.5508 54.4961 78.0117 54.7695C77.4805 55.0352 76.9375 55.4453 76.3828 56C75.8281 56.5469 75.2812 57.2422 74.7422 58.0859C74.2109 58.9219 73.7227 59.9062 73.2773 61.0391C72.9102 61.9844 72.6328 62.8594 72.4453 63.6641C72.2656 64.4688 72.1758 65.1406 72.1758 65.6797C72.1758 66.2891 72.2969 66.7695 72.5391 67.1211C72.7891 67.4648 73.1758 67.6367 73.6992 67.6367ZM91.1484 59.1523C91.7578 58.1133 92.3164 57.2422 92.8242 56.5391C93.332 55.8359 93.8203 55.2734 94.2891 54.8516C94.7656 54.4297 95.2383 54.1289 95.707 53.9492C96.1836 53.7695 96.6914 53.6797 97.2305 53.6797C98.1211 53.6797 98.8008 53.8867 99.2695 54.3008C99.7461 54.7148 99.9844 55.3125 99.9844 56.0938C99.9844 56.75 99.8203 57.3477 99.4922 57.8867C99.1719 58.4258 98.707 58.8945 98.0977 59.293C97.9023 59.418 97.6875 59.5352 97.4531 59.6445C97.2266 59.7539 96.9648 59.8633 96.668 59.9727C96.3711 60.082 96.0352 60.1953 95.6602 60.3125C95.2852 60.4219 94.8555 60.5352 94.3711 60.6523V60.6992C95.332 60.7617 96.0664 60.9766 96.5742 61.3438C97.0898 61.7109 97.3477 62.1758 97.3477 62.7383C97.3477 62.9883 97.3047 63.25 97.2188 63.5234C97.1328 63.7891 97.0352 64.0625 96.9258 64.3438C96.8242 64.625 96.7305 64.9102 96.6445 65.1992C96.5586 65.4805 96.5156 65.7578 96.5156 66.0312C96.5156 66.5078 96.668 66.8945 96.9727 67.1914C97.2773 67.4883 97.7266 67.6367 98.3203 67.6367C98.7969 67.6367 99.2695 67.5273 99.7383 67.3086C100.207 67.0898 100.68 66.7578 101.156 66.3125C101.633 65.8594 102.117 65.2891 102.609 64.6016C103.109 63.9062 103.629 63.082 104.168 62.1289L104.777 61.0508L105.094 61.2734L104.484 62.3516C103.844 63.4844 103.25 64.4297 102.703 65.1875C102.156 65.9375 101.617 66.5391 101.086 66.9922C100.562 67.4375 100.035 67.7539 99.5039 67.9414C98.9727 68.1289 98.4023 68.2227 97.793 68.2227C97.4336 68.2227 97.0898 68.1875 96.7617 68.1172C96.4336 68.0547 96.1445 67.9453 95.8945 67.7891C95.6445 67.6328 95.4453 67.4219 95.2969 67.1562C95.1484 66.8906 95.0742 66.5586 95.0742 66.1602C95.0742 65.8477 95.1133 65.5312 95.1914 65.2109C95.2773 64.8828 95.3672 64.5664 95.4609 64.2617C95.5625 63.9492 95.6523 63.6484 95.7305 63.3594C95.8164 63.0703 95.8594 62.8008 95.8594 62.5508C95.8594 62.0664 95.6641 61.6602 95.2734 61.332C94.8828 61.0039 94.2773 60.8281 93.457 60.8047V60.7461C94.2773 60.5195 95.0117 60.2383 95.6602 59.9023C96.3164 59.5664 96.8672 59.1992 97.3125 58.8008C98.1797 58.0117 98.6133 57.0859 98.6133 56.0234C98.6133 54.7578 98.0273 54.125 96.8555 54.125C96.3945 54.125 95.9414 54.2344 95.4961 54.4531C95.0586 54.6641 94.5898 55.043 94.0898 55.5898C93.5898 56.1289 93.0391 56.8594 92.4375 57.7812C91.8438 58.7031 91.1602 59.8672 90.3867 61.2734L87.9258 68H86.1914L93.4922 47.9375H95.2383L91.1484 59.1523ZM103.863 54.1133H107.285L108.398 51.043H110.133L109.02 54.1133H112.535V54.582H108.844L106.031 62.3164C105.922 62.6211 105.812 62.9336 105.703 63.2539C105.602 63.5742 105.508 63.8906 105.422 64.2031C105.344 64.5078 105.277 64.8047 105.223 65.0938C105.176 65.375 105.152 65.6328 105.152 65.8672C105.152 66.4062 105.297 66.8359 105.586 67.1562C105.883 67.4766 106.328 67.6367 106.922 67.6367C107.5 67.6367 108.062 67.5273 108.609 67.3086C109.156 67.0898 109.695 66.7539 110.227 66.3008C110.758 65.8477 111.285 65.2773 111.809 64.5898C112.332 63.8945 112.859 63.0742 113.391 62.1289L114 61.0508L114.316 61.2734L113.707 62.3516C113.09 63.4453 112.492 64.3672 111.914 65.1172C111.336 65.8594 110.762 66.4609 110.191 66.9219C109.629 67.3828 109.055 67.7148 108.469 67.918C107.891 68.1211 107.289 68.2227 106.664 68.2227C106.188 68.2227 105.766 68.1484 105.398 68C105.031 67.8594 104.727 67.6562 104.484 67.3906C104.234 67.125 104.047 66.8047 103.922 66.4297C103.789 66.0547 103.723 65.6367 103.723 65.1758C103.723 64.7695 103.77 64.3242 103.863 63.8398C103.957 63.3555 104.102 62.8477 104.297 62.3164L107.109 54.582H103.863V54.1133ZM116.52 54.1133H118.254L115.266 62.3164C115.156 62.6211 115.047 62.9336 114.938 63.2539C114.828 63.5664 114.73 63.8789 114.645 64.1914C114.566 64.4961 114.5 64.793 114.445 65.082C114.398 65.3633 114.375 65.625 114.375 65.8672C114.375 66.4062 114.52 66.8359 114.809 67.1562C115.098 67.4766 115.539 67.6367 116.133 67.6367C116.656 67.6367 117.16 67.5234 117.645 67.2969C118.129 67.0625 118.609 66.7188 119.086 66.2656C119.562 65.8047 120.043 65.2305 120.527 64.543C121.02 63.8555 121.531 63.0508 122.062 62.1289L122.684 61.0625L125.203 54.1133H126.949L121.418 69.3125C120.848 70.8906 120 72.0938 118.875 72.9219C117.758 73.7578 116.418 74.1758 114.855 74.1758C114.098 74.1758 113.469 74.0742 112.969 73.8711C112.461 73.668 112.055 73.3477 111.75 72.9102C111.594 72.6992 111.477 72.4727 111.398 72.2305C111.32 71.9961 111.281 71.7617 111.281 71.5273C111.281 71.1758 111.375 70.8984 111.562 70.6953C111.742 70.4922 111.992 70.3906 112.312 70.3906C112.586 70.3906 112.801 70.4648 112.957 70.6133C113.113 70.7617 113.191 70.9688 113.191 71.2344C113.191 71.4844 113.125 71.6875 112.992 71.8438C112.859 72 112.691 72.0781 112.488 72.0781C112.402 72.0781 112.336 72.0664 112.289 72.043C112.234 72.0195 112.176 72.0078 112.113 72.0078C112.066 72.0078 112.039 72.0156 112.031 72.0312C112.016 72.0547 112.008 72.0977 112.008 72.1602C112.008 72.3789 112.078 72.5781 112.219 72.7578C112.359 72.9453 112.555 73.1055 112.805 73.2383C113.055 73.3789 113.352 73.4844 113.695 73.5547C114.031 73.6328 114.402 73.6719 114.809 73.6719C115.379 73.6719 115.902 73.5898 116.379 73.4258C116.855 73.2617 117.289 73.0039 117.68 72.6523C118.078 72.3086 118.438 71.8672 118.758 71.3281C119.078 70.7891 119.375 70.1484 119.648 69.4062L121.945 63.1016C121.43 63.9766 120.93 64.7383 120.445 65.3867C119.961 66.0273 119.473 66.5586 118.98 66.9805C118.496 67.4023 118 67.7148 117.492 67.918C116.984 68.1211 116.445 68.2227 115.875 68.2227C115.398 68.2227 114.977 68.1484 114.609 68C114.25 67.8594 113.949 67.6562 113.707 67.3906C113.457 67.125 113.27 66.8047 113.145 66.4297C113.02 66.0547 112.957 65.6367 112.957 65.1758C112.957 64.7695 113.008 64.3242 113.109 63.8398C113.203 63.3555 113.344 62.8477 113.531 62.3164L116.52 54.1133ZM138.527 56.9258C138.262 56.9258 138.051 56.8516 137.895 56.7031C137.746 56.5469 137.672 56.3359 137.672 56.0703C137.672 55.8203 137.738 55.6172 137.871 55.4609C138.004 55.3047 138.18 55.2266 138.398 55.2266C138.477 55.2266 138.551 55.2422 138.621 55.2734C138.66 55.2891 138.688 55.3008 138.703 55.3086C138.719 55.3086 138.734 55.3086 138.75 55.3086C138.82 55.3086 138.855 55.2578 138.855 55.1562C138.855 55.0547 138.816 54.957 138.738 54.8633C138.66 54.7617 138.555 54.6758 138.422 54.6055C138.289 54.5273 138.133 54.4688 137.953 54.4297C137.781 54.3828 137.602 54.3594 137.414 54.3594C136.93 54.3594 136.438 54.5 135.938 54.7812C135.445 55.0625 134.965 55.4492 134.496 55.9414C134.035 56.4258 133.598 56.9961 133.184 57.6523C132.777 58.3086 132.422 59.0117 132.117 59.7617C131.812 60.5039 131.57 61.2734 131.391 62.0703C131.219 62.8672 131.133 63.6484 131.133 64.4141C131.133 64.9922 131.184 65.4844 131.285 65.8906C131.395 66.2969 131.559 66.6289 131.777 66.8867C132.004 67.1445 132.293 67.3359 132.645 67.4609C132.996 67.5781 133.418 67.6367 133.91 67.6367C134.637 67.6367 135.344 67.5156 136.031 67.2734C136.727 67.0312 137.395 66.6797 138.035 66.2188C138.684 65.75 139.297 65.1758 139.875 64.4961C140.461 63.8086 141.004 63.0195 141.504 62.1289L142.113 61.0508L142.43 61.2734L141.82 62.3516C140.703 64.3359 139.469 65.8125 138.117 66.7812C136.766 67.7422 135.289 68.2227 133.688 68.2227C132.234 68.2227 131.141 67.8477 130.406 67.0977C129.68 66.3477 129.316 65.2578 129.316 63.8281C129.316 63.4062 129.348 62.9727 129.41 62.5273C129.473 62.082 129.562 61.6328 129.68 61.1797C129.961 60.1328 130.355 59.1641 130.863 58.2734C131.379 57.3828 131.965 56.6133 132.621 55.9648C133.285 55.3164 134 54.8086 134.766 54.4414C135.539 54.0742 136.324 53.8906 137.121 53.8906C137.957 53.8906 138.594 54.1094 139.031 54.5469C139.211 54.7266 139.348 54.9258 139.441 55.1445C139.535 55.3555 139.582 55.5742 139.582 55.8008C139.582 56.1445 139.484 56.418 139.289 56.6211C139.102 56.8242 138.848 56.9258 138.527 56.9258ZM156.375 54.4414L145.395 65.832C145.559 65.7617 145.738 65.707 145.934 65.668C146.129 65.6211 146.34 65.5977 146.566 65.5977C146.918 65.5977 147.285 65.6367 147.668 65.7148C148.059 65.793 148.449 65.8906 148.84 66.0078C149.238 66.125 149.625 66.25 150 66.3828C150.383 66.5156 150.742 66.6406 151.078 66.7578C151.422 66.875 151.734 66.9727 152.016 67.0508C152.297 67.1289 152.535 67.168 152.73 67.168C152.918 67.168 153.094 67.1562 153.258 67.1328C153.43 67.1094 153.598 67.0703 153.762 67.0156C153.926 66.9531 154.086 66.8711 154.242 66.7695C154.406 66.6602 154.574 66.5273 154.746 66.3711C155.215 65.9258 155.703 65.3555 156.211 64.6602C156.727 63.957 157.277 63.1133 157.863 62.1289L158.508 61.0508L158.812 61.2734L158.168 62.3516C157.551 63.3906 156.988 64.2734 156.48 65C155.973 65.7266 155.473 66.3242 154.98 66.793C154.676 67.082 154.375 67.3203 154.078 67.5078C153.789 67.6953 153.492 67.8438 153.188 67.9531C152.883 68.0547 152.562 68.125 152.227 68.1641C151.891 68.2031 151.523 68.2227 151.125 68.2227C150.828 68.2227 150.512 68.1836 150.176 68.1055C149.84 68.0352 149.496 67.9453 149.145 67.8359C148.801 67.7188 148.453 67.5938 148.102 67.4609C147.75 67.3281 147.402 67.207 147.059 67.0977C146.715 66.9805 146.379 66.8867 146.051 66.8164C145.73 66.7383 145.426 66.6992 145.137 66.6992C144.934 66.6992 144.766 66.7305 144.633 66.793C144.508 66.8477 144.379 66.9375 144.246 67.0625C144.121 67.1875 143.969 67.3477 143.789 67.543C143.617 67.7305 143.383 67.957 143.086 68.2227L142.816 67.7773L154.629 55.4375C154.129 55.7578 153.637 56.0117 153.152 56.1992C152.676 56.3867 152.195 56.4805 151.711 56.4805C151.422 56.4805 151.129 56.4453 150.832 56.375C150.535 56.2969 150.238 56.2031 149.941 56.0938C149.645 55.9766 149.355 55.8516 149.074 55.7188C148.801 55.5859 148.543 55.4648 148.301 55.3555C148.066 55.2383 147.852 55.1445 147.656 55.0742C147.461 54.9961 147.301 54.957 147.176 54.957C146.98 54.957 146.738 55.082 146.449 55.332C146.16 55.5742 145.832 55.9297 145.465 56.3984C145.105 56.8594 144.707 57.4297 144.27 58.1094C143.84 58.7891 143.383 59.5625 142.898 60.4297L142.277 61.5195L141.973 61.3086L142.594 60.207C143.227 59.0742 143.793 58.1094 144.293 57.3125C144.793 56.5078 145.262 55.8516 145.699 55.3438C146.137 54.8281 146.562 54.4531 146.977 54.2188C147.398 53.9766 147.848 53.8555 148.324 53.8555C148.762 53.8555 149.18 53.9375 149.578 54.1016C149.977 54.2578 150.367 54.4297 150.75 54.6172C151.141 54.8047 151.527 54.9805 151.91 55.1445C152.301 55.3008 152.707 55.3789 153.129 55.3789C153.535 55.3789 153.977 55.2773 154.453 55.0742C154.93 54.8711 155.465 54.5039 156.059 53.9727L156.375 54.4414ZM161.027 54.1133H162.762L160.922 59.1523C161.445 58.2617 161.949 57.4883 162.434 56.832C162.918 56.168 163.398 55.6211 163.875 55.1914C164.359 54.7539 164.848 54.4297 165.34 54.2188C165.832 54 166.352 53.8906 166.898 53.8906C167.391 53.8906 167.82 53.9727 168.188 54.1367C168.555 54.293 168.863 54.5117 169.113 54.793C169.363 55.0664 169.551 55.3867 169.676 55.7539C169.801 56.1211 169.863 56.5078 169.863 56.9141C169.863 57.3594 169.797 57.8438 169.664 58.3672C169.539 58.8906 169.379 59.4297 169.184 59.9844C168.988 60.5391 168.777 61.1016 168.551 61.6719C168.324 62.2344 168.113 62.7773 167.918 63.3008C167.723 63.8242 167.559 64.3164 167.426 64.7773C167.301 65.2305 167.238 65.6289 167.238 65.9727C167.238 66.4492 167.383 66.8477 167.672 67.168C167.969 67.4805 168.43 67.6367 169.055 67.6367C169.555 67.6367 170.043 67.5234 170.52 67.2969C171.004 67.0625 171.484 66.7188 171.961 66.2656C172.445 65.8047 172.93 65.2305 173.414 64.543C173.906 63.8477 174.41 63.043 174.926 62.1289L175.535 61.0508L175.852 61.2734L175.242 62.3516C174.68 63.3359 174.141 64.1992 173.625 64.9414C173.109 65.6758 172.594 66.2852 172.078 66.7695C171.562 67.2539 171.035 67.6172 170.496 67.8594C169.965 68.1016 169.398 68.2227 168.797 68.2227C168.305 68.2227 167.871 68.1484 167.496 68C167.129 67.8516 166.82 67.6484 166.57 67.3906C166.32 67.1328 166.133 66.8359 166.008 66.5C165.883 66.1562 165.82 65.793 165.82 65.4102C165.82 65.0039 165.883 64.5508 166.008 64.0508C166.141 63.543 166.305 63.0156 166.5 62.4688C166.695 61.9141 166.906 61.3555 167.133 60.793C167.359 60.2227 167.57 59.6719 167.766 59.1406C167.961 58.6016 168.121 58.0938 168.246 57.6172C168.379 57.1328 168.445 56.7031 168.445 56.3281C168.445 56.0625 168.41 55.8164 168.34 55.5898C168.27 55.3633 168.156 55.168 168 55.0039C167.852 54.8398 167.66 54.7109 167.426 54.6172C167.199 54.5234 166.926 54.4766 166.605 54.4766C166.113 54.4766 165.633 54.5977 165.164 54.8398C164.695 55.0742 164.223 55.4297 163.746 55.9062C163.277 56.3828 162.797 56.9805 162.305 57.6992C161.82 58.4102 161.309 59.2422 160.77 60.1953L160.16 61.2734L157.699 68H155.965L161.027 54.1133ZM178.078 54.1133H179.812L176.824 62.3164C176.715 62.6211 176.605 62.9336 176.496 63.2539C176.387 63.5664 176.289 63.8789 176.203 64.1914C176.125 64.4961 176.059 64.793 176.004 65.082C175.957 65.3633 175.934 65.625 175.934 65.8672C175.934 66.4062 176.074 66.8359 176.355 67.1562C176.645 67.4766 177.09 67.6367 177.691 67.6367C178.215 67.6367 178.719 67.5234 179.203 67.2969C179.695 67.0703 180.18 66.7305 180.656 66.2773C181.141 65.8164 181.625 65.2422 182.109 64.5547C182.594 63.8594 183.098 63.0508 183.621 62.1289L184.23 61.0508L184.547 61.2734L183.938 62.3516C183.367 63.3594 182.82 64.2344 182.297 64.9766C181.781 65.7109 181.262 66.3203 180.738 66.8047C180.223 67.2812 179.695 67.6367 179.156 67.8711C178.617 68.1055 178.043 68.2227 177.434 68.2227C176.957 68.2227 176.535 68.1484 176.168 68C175.809 67.8594 175.508 67.6562 175.266 67.3906C175.016 67.125 174.828 66.8047 174.703 66.4297C174.578 66.0547 174.516 65.6367 174.516 65.1758C174.516 64.7695 174.566 64.3242 174.668 63.8398C174.762 63.3555 174.902 62.8477 175.09 62.3164L178.078 54.1133ZM179.016 51.043C179.016 50.7695 179.109 50.5352 179.297 50.3398C179.492 50.1445 179.727 50.0469 180 50.0469C180.273 50.0469 180.504 50.1445 180.691 50.3398C180.887 50.5273 180.984 50.7578 180.984 51.0312C180.984 51.1641 180.957 51.293 180.902 51.418C180.855 51.5352 180.785 51.6367 180.691 51.7227C180.605 51.8086 180.5 51.8789 180.375 51.9336C180.258 51.9805 180.129 52.0039 179.988 52.0039C179.715 52.0039 179.484 51.9141 179.297 51.7344C179.109 51.5469 179.016 51.3164 179.016 51.043ZM188.25 68.2227C186.836 68.2227 185.746 67.8555 184.98 67.1211C184.215 66.3789 183.832 65.2773 183.832 63.8164C183.832 63.418 183.863 62.9961 183.926 62.5508C183.98 62.1055 184.07 61.6484 184.195 61.1797C184.477 60.1328 184.871 59.1641 185.379 58.2734C185.895 57.3828 186.484 56.6133 187.148 55.9648C187.812 55.3164 188.527 54.8086 189.293 54.4414C190.059 54.0742 190.828 53.8906 191.602 53.8906C192.383 53.8906 192.996 54.0742 193.441 54.4414C193.895 54.8086 194.121 55.3242 194.121 55.9883C194.121 56.3633 194.047 56.7305 193.898 57.0898C193.75 57.4492 193.535 57.7891 193.254 58.1094C192.973 58.4297 192.633 58.7305 192.234 59.0117C191.844 59.2852 191.402 59.5234 190.91 59.7266C190.301 59.9844 189.629 60.1797 188.895 60.3125C188.16 60.4375 187.324 60.5 186.387 60.5C186.16 61.1328 185.98 61.793 185.848 62.4805C185.723 63.1602 185.66 63.8555 185.66 64.5664C185.66 65.6523 185.887 66.4375 186.34 66.9219C186.801 67.3984 187.523 67.6367 188.508 67.6367C189.328 67.6367 190.109 67.4805 190.852 67.168C191.594 66.8477 192.281 66.4297 192.914 65.9141C193.547 65.3984 194.125 64.8125 194.648 64.1562C195.172 63.4922 195.629 62.8164 196.02 62.1289L196.629 61.0508L196.945 61.2734L196.336 62.3516C195.852 63.2031 195.32 63.9883 194.742 64.707C194.172 65.4258 193.547 66.0469 192.867 66.5703C192.195 67.0859 191.473 67.4922 190.699 67.7891C189.934 68.0781 189.117 68.2227 188.25 68.2227ZM191.93 54.3594C191.438 54.3594 190.934 54.5039 190.418 54.793C189.91 55.082 189.418 55.4844 188.941 56C188.465 56.5078 188.02 57.1094 187.605 57.8047C187.191 58.5 186.832 59.2578 186.527 60.0781C187.387 60.0625 188.121 59.9883 188.73 59.8555C189.34 59.7148 189.871 59.5391 190.324 59.3281C190.684 59.1641 191.031 58.9531 191.367 58.6953C191.711 58.4297 192.012 58.1289 192.27 57.793C192.535 57.457 192.746 57.0938 192.902 56.7031C193.066 56.3125 193.148 55.9062 193.148 55.4844C193.148 55.2734 193.117 55.0977 193.055 54.957C192.992 54.8164 192.906 54.7031 192.797 54.6172C192.688 54.5234 192.559 54.457 192.41 54.418C192.262 54.3789 192.102 54.3594 191.93 54.3594Z"
    fill="black"
  />
  <path
    d="M148.11 13.75H143.82C143.638 13.75 143.463 13.8225 143.334 13.9514C143.205 14.0803 143.133 14.2552 143.133 14.4375V18.7344C143.133 18.9167 143.205 19.0916 143.334 19.2205C143.463 19.3494 143.638 19.4219 143.82 19.4219H148.11C148.292 19.4219 148.467 19.3494 148.596 19.2205C148.725 19.0916 148.798 18.9167 148.798 18.7344V14.4375C148.798 14.2552 148.725 14.0803 148.596 13.9514C148.467 13.8225 148.292 13.75 148.11 13.75ZM147.423 18.0469H144.508V15.125H147.423V18.0469Z"
    fill="black"
  />
  <path
    d="M160.265 15.9019H151.981C151.798 15.9019 151.624 15.9743 151.495 16.1032C151.366 16.2321 151.293 16.407 151.293 16.5894C151.293 16.7717 151.366 16.9466 151.495 17.0755C151.624 17.2044 151.798 17.2769 151.981 17.2769H160.265C160.447 17.2769 160.622 17.2044 160.751 17.0755C160.88 16.9466 160.953 16.7717 160.953 16.5894C160.953 16.407 160.88 16.2321 160.751 16.1032C160.622 15.9743 160.447 15.9019 160.265 15.9019Z"
    fill="black"
  />
  <path
    d="M148.11 22.2544H143.82C143.638 22.2544 143.463 22.3269 143.334 22.4558C143.205 22.5847 143.133 22.7596 143.133 22.9419V27.2319C143.133 27.4142 143.205 27.5891 143.334 27.718C143.463 27.8469 143.638 27.9194 143.82 27.9194H148.11C148.292 27.9194 148.467 27.8469 148.596 27.718C148.725 27.5891 148.798 27.4142 148.798 27.2319V22.9419C148.798 22.7596 148.725 22.5847 148.596 22.4558C148.467 22.3269 148.292 22.2544 148.11 22.2544ZM147.423 26.5444H144.508V23.6294H147.423V26.5444Z"
    fill="black"
  />
  <path
    d="M160.265 24.3994H151.981C151.798 24.3994 151.624 24.4718 151.495 24.6008C151.366 24.7297 151.293 24.9046 151.293 25.0869C151.293 25.2692 151.366 25.4441 151.495 25.573C151.624 25.702 151.798 25.7744 151.981 25.7744H160.265C160.447 25.7744 160.622 25.702 160.751 25.573C160.88 25.4441 160.953 25.2692 160.953 25.0869C160.953 24.9046 160.88 24.7297 160.751 24.6008C160.622 24.4718 160.447 24.3994 160.265 24.3994Z"
    fill="black"
  />
  <path
    d="M148.11 30.752H143.82C143.638 30.752 143.463 30.8243 143.334 30.9533C143.205 31.0822 143.133 31.2571 143.133 31.4395V35.7501C143.133 35.9324 143.205 36.1073 143.334 36.2362C143.463 36.3651 143.638 36.4376 143.82 36.4376H148.11C148.292 36.4376 148.467 36.3651 148.596 36.2362C148.725 36.1073 148.798 35.9324 148.798 35.7501V31.4395C148.798 31.2571 148.725 31.0822 148.596 30.9533C148.467 30.8243 148.292 30.752 148.11 30.752ZM147.423 35.042H144.508V32.127H147.423V35.042Z"
    fill="black"
  />
  <path
    d="M160.265 32.897H151.981C151.798 32.897 151.624 32.9694 151.495 33.0983C151.366 33.2272 151.293 33.4021 151.293 33.5845C151.293 33.7668 151.366 33.9416 151.495 34.0706C151.624 34.1995 151.798 34.272 151.981 34.272H160.265C160.447 34.272 160.622 34.1995 160.751 34.0706C160.88 33.9416 160.953 33.7668 160.953 33.5845C160.953 33.4021 160.88 33.2272 160.751 33.0983C160.622 32.9694 160.447 32.897 160.265 32.897Z"
    fill="black"
  />
  <path
    d="M175.864 27.342C175.356 26.8676 175.328 26.0701 175.342 25.1626C175.234 24.0043 174.757 22.9111 173.981 22.0446C173.205 21.1781 172.171 20.584 171.031 20.3501C171.163 19.8114 171.472 19.3325 171.908 18.9898C172.344 18.6471 172.883 18.4604 173.438 18.4595C173.62 18.4595 173.795 18.387 173.924 18.2581C174.053 18.1292 174.125 17.9543 174.125 17.772C174.125 17.5897 174.053 17.4148 173.924 17.2859C173.795 17.1569 173.62 17.0845 173.438 17.0845C172.522 17.0855 171.636 17.4115 170.939 18.0046C170.241 18.5976 169.777 19.4191 169.629 20.3226C168.327 20.5524 167.157 21.2551 166.343 22.2957V9.98949C166.343 9.5673 166.259 9.14923 166.097 8.75921C165.936 8.36926 165.699 8.015 165.4 7.71683C165.101 7.41859 164.746 7.18223 164.356 7.02128C163.965 6.86034 163.547 6.77796 163.125 6.77886H159.364V6.58636C159.364 5.93952 159.11 5.31864 158.656 4.85804C158.202 4.39744 157.584 4.13415 156.938 4.12511H155.466C155.32 3.52735 154.977 2.996 154.493 2.61613C154.008 2.23625 153.411 2.02979 152.795 2.02979C152.18 2.02979 151.582 2.23625 151.098 2.61613C150.614 2.996 150.271 3.52735 150.124 4.12511H149.162C148.51 4.12511 147.885 4.38348 147.424 4.84356C146.963 5.30365 146.702 5.92792 146.701 6.57949V6.77199H142.947C142.097 6.77744 141.284 7.11884 140.685 7.72164C140.086 8.32444 139.75 9.13975 139.75 9.98949V38.727C139.752 39.5756 140.089 40.3891 140.688 40.9904C141.286 41.5917 142.098 41.9322 142.947 41.9376H163.125C163.627 41.9376 164.122 41.8194 164.57 41.5925C165.018 41.3656 165.406 41.0362 165.703 40.6314C166.903 41.4975 168.348 41.9576 169.828 41.9445H170.268C173.389 42.1232 176.064 40.4114 177.439 37.3589C178.222 35.7263 178.491 33.8943 178.21 32.1055C177.928 30.3168 177.111 28.6556 175.864 27.342ZM148.076 6.58636C148.075 6.44346 148.102 6.3018 148.156 6.16959C148.211 6.03739 148.291 5.91728 148.392 5.81623C148.493 5.71518 148.613 5.63521 148.745 5.58094C148.877 5.52668 149.019 5.4992 149.162 5.50011H150.75C150.932 5.50011 151.107 5.42769 151.236 5.29875C151.365 5.16982 151.438 4.99495 151.438 4.81261C151.438 4.44794 151.582 4.0982 151.84 3.84034C152.098 3.58248 152.448 3.43761 152.812 3.43761C153.177 3.43761 153.527 3.58248 153.785 3.84034C154.043 4.0982 154.188 4.44794 154.188 4.81261C154.188 4.99495 154.26 5.16982 154.389 5.29875C154.518 5.42769 154.693 5.50011 154.875 5.50011H156.938C157.08 5.49921 157.221 5.52646 157.353 5.5803C157.484 5.63413 157.604 5.7135 157.705 5.81381C157.806 5.91413 157.886 6.03343 157.941 6.16484C157.996 6.29625 158.024 6.43716 158.024 6.57949V8.3395C158.024 8.62756 157.909 8.90386 157.706 9.10757C157.502 9.31128 157.226 9.42575 156.938 9.42575H149.162C148.875 9.42575 148.6 9.31224 148.396 9.11005C148.193 8.90778 148.077 8.63326 148.076 8.34637V6.58636ZM163.125 40.5626H142.947C142.463 40.5572 142.001 40.3617 141.66 40.0182C141.319 39.6747 141.127 39.2109 141.125 38.727V9.98949C141.127 9.50323 141.321 9.03738 141.665 8.69349C142.008 8.34967 142.474 8.15566 142.961 8.15387H146.714V8.34637C146.716 8.99791 146.976 9.62223 147.438 10.0823C147.899 10.5424 148.524 10.8007 149.176 10.8007H156.938C157.589 10.8007 158.214 10.5424 158.675 10.0823C159.137 9.62223 159.397 8.99791 159.399 8.34637V8.15387H163.125C163.611 8.15566 164.077 8.34967 164.421 8.69349C164.765 9.03738 164.959 9.50323 164.961 9.98949V26.8607C164.886 27.0429 164.774 27.207 164.631 27.342C163.391 28.6554 162.578 30.3136 162.3 32.0981C162.021 33.8825 162.29 35.7095 163.07 37.3382C163.461 38.2171 163.998 39.0237 164.658 39.7239C164.494 39.9814 164.267 40.1933 163.999 40.3399C163.731 40.4865 163.43 40.5631 163.125 40.5626ZM176.188 36.7814C175.729 37.9519 174.912 38.9478 173.854 39.6268C172.796 40.3058 171.551 40.6333 170.296 40.5626C170.266 40.5556 170.236 40.5556 170.206 40.5626C168.951 40.6313 167.707 40.3021 166.65 39.6218C165.593 38.9416 164.778 37.9452 164.321 36.7745C163.001 33.8595 163.531 30.3807 165.586 28.3389C166.563 27.397 166.562 26.0151 166.562 25.2589C166.651 24.3144 167.071 23.4316 167.748 22.7672C168.425 22.1028 169.315 21.6995 170.261 21.6289C171.203 21.6879 172.094 22.0775 172.777 22.729C173.46 23.3804 173.891 24.252 173.994 25.1901C173.994 26.0082 173.946 27.3832 174.929 28.3182C176.957 30.3807 177.48 33.8595 176.188 36.7814Z"
    fill="black"
  />
  <path
    d="M170.241 29.2529C169.298 29.2529 168.377 29.5323 167.594 30.0559C166.81 30.5794 166.2 31.3235 165.839 32.1941C165.478 33.0646 165.384 34.0226 165.568 34.9468C165.752 35.871 166.205 36.7199 166.872 37.3862C167.538 38.0525 168.387 38.5063 169.311 38.6901C170.235 38.8739 171.193 38.7796 172.064 38.419C172.935 38.0584 173.679 37.4477 174.202 36.6642C174.726 35.8808 175.005 34.9596 175.005 34.0173C175.003 32.7543 174.501 31.5435 173.608 30.6504C172.715 29.7573 171.504 29.2547 170.241 29.2529ZM170.241 37.3998C169.57 37.3998 168.914 37.2008 168.357 36.8281C167.799 36.4554 167.365 35.9256 167.109 35.3059C166.852 34.6862 166.786 34.0043 166.917 33.3466C167.048 32.689 167.372 32.0851 167.847 31.6113C168.321 31.1376 168.926 30.8153 169.584 30.6853C170.242 30.5553 170.923 30.6235 171.543 30.881C172.162 31.1386 172.691 31.5741 173.062 32.1324C173.434 32.6907 173.631 33.3466 173.63 34.0173C173.626 34.9145 173.268 35.7737 172.633 36.4075C171.998 37.0413 171.138 37.398 170.241 37.3998Z"
    fill="black"
  />
</svg>